HIERARCHY
ROOT Hips
{
  OFFSET 2.26061 22.2878 23.7974
  CHANNELS 6 Xposition Yposition Zposition Zrotation Xrotation Yrotation
  JOINT LeftUpLeg
  {
    OFFSET 8.64259 1.95398 -2.38835
    CHANNELS 3 Zrotation Xrotation Yrotation
    JOINT LeftLeg
    {
      OFFSET 43.7702 0 0
      CHANNELS 3 Zrotation Xrotation Yrotation
      JOINT LeftFoot
      {
        OFFSET 40.6238 0 0
        CHANNELS 3 Zrotation Xrotation Yrotation
        JOINT LeftToeBase
        {
          OFFSET 12.7242 0 0
          CHANNELS 3 Zrotation Xrotation Yrotation
          End Site
          {
            OFFSET 0 0 0
          }
        }
      }
    }
  }
  JOINT RightUpLeg
  {
    OFFSET -8.2249 1.95398 -2.59336
    CHANNELS 3 Zrotation Xrotation Yrotation
    JOINT RightLeg
    {
      OFFSET 43.5653 0 0
      CHANNELS 3 Zrotation Xrotation Yrotation
      JOINT RightFoot
      {
        OFFSET 40.6238 0 0
        CHANNELS 3 Zrotation Xrotation Yrotation
        JOINT RightToeBase
        {
          OFFSET 12.7242 0 0
          CHANNELS 3 Zrotation Xrotation Yrotation
          End Site
          {
            OFFSET 0 0 0
          }
        }
      }
    }
  }
  JOINT Spine
  {
    OFFSET 0.165834 0.87714 6.61349
    CHANNELS 3 Zrotation Xrotation Yrotation
    JOINT Spine1
    {
      OFFSET 7.38963 1.71661e-005 0
      CHANNELS 3 Zrotation Xrotation Yrotation
      JOINT Spine2
      {
        OFFSET 11.9445 1.14441e-005 0
        CHANNELS 3 Zrotation Xrotation Yrotation
        JOINT Spine3
        {
          OFFSET 14.7254 4.19617e-005 0
          CHANNELS 3 Zrotation Xrotation Yrotation
          JOINT Spine4
          {
            OFFSET 10.9679 0 0
            CHANNELS 3 Zrotation Xrotation Yrotation
            JOINT RightShoulder
            {
              OFFSET 2.46616 -1.6653 3.69651
              CHANNELS 3 Zrotation Xrotation Yrotation
              JOINT RightArm
              {
                OFFSET 13.0012 0 0
                CHANNELS 3 Zrotation Xrotation Yrotation
                JOINT RightForeArm
                {
                  OFFSET 28.7848 1.52588e-005 0
                  CHANNELS 3 Zrotation Xrotation Yrotation
                  JOINT RightHand
                  {
                    OFFSET 26.5688 1.52588e-005 0
                    CHANNELS 3 Zrotation Xrotation Yrotation
                    End Site
                    {
                      OFFSET 0 0 0
                    }
                  }
                }
              }
            }
            JOINT LeftShoulder
            {
              OFFSET 2.38034 -1.29275 -3.7523
              CHANNELS 3 Zrotation Xrotation Yrotation
              JOINT LeftArm
              {
                OFFSET 16.3182 6.10351e-005 0
                CHANNELS 3 Zrotation Xrotation Yrotation
                JOINT LeftForeArm
                {
                  OFFSET 27.0901 0 0
                  CHANNELS 3 Zrotation Xrotation Yrotation
                  JOINT LeftHand
                  {
                    OFFSET 24.5451 1.52588e-005 0
                    CHANNELS 3 Zrotation Xrotation Yrotation
                    End Site
                    {
                      OFFSET 0 0 0
                    }
                  }
                }
              }
            }
            JOINT Neck
            {
              OFFSET 5.0226 -0.0266342 0
              CHANNELS 3 Zrotation Xrotation Yrotation
              JOINT Head
              {
                OFFSET 6.69363 2.86102e-005 0
                CHANNELS 3 Zrotation Xrotation Yrotation
                End Site
                {
                  OFFSET 0 0 0
                }
              }
            }
          }
        }
      }
    }
  }
}
MOTION
Frames:	7
Frame Time:	0.0416667
-57.2751 21.2447 39.007 -4.10852 -9.9317 -6.16558 -167.723 8.52188 86.6018 -26.6255 14.4144 -6.07325 61.0857 3.83725 7.33289 61.3479 38.2352 30.2435 177.036 13.4029 84.3957 -40.4857 -14.853 -8.94825 76.81 -7.40241 -3.37676 64.8094 2.75809 3.62062 0.33364 7.62553 -91.572 11.6112 -0.0726247 -3.12501 -0.0634469 -0.21002 -3.11881 -22.5701 0.869486 -3.00261 -2.5574 0.869497 -3.00261 92.8221 -50.9217 -96.3193 1.30279 -8.52223 16.4366 -57.6347 16.1503 -103.423 -68.196 -8.87666 12.8221 -90.5134 -37.0754 74.6431 21.0952 -13.215 28.3098 32.924 -12.9295 -123.469 63.377 14.3117 17.7732 20.031 0.748573 5.81341 36.6744 0.254036 3.21771 
-57.2551 19.4304 39.4957 -2.96665 -8.81077 -5.94382 -168.251 7.44728 86.2011 -24.4941 13.9549 -5.6054 61.2008 4.17222 7.67291 61.7623 38.3726 29.5758 176.708 12.4207 84.1685 -39.2877 -15.9221 -9.30528 77.319 -7.55554 -3.40401 64.2044 2.44656 2.58722 0.194584 7.5179 -91.552 11.8233 -0.342783 -3.05804 0.148841 -0.476977 -3.04002 -22.3581 0.591694 -3.01981 -2.34542 0.59169 -3.0198 93.0866 -51.4465 -95.8278 2.29207 -8.83659 19.4583 -57.8734 17.7736 -103.839 -68.5236 -9.17046 13.2064 -89.5785 -37.2769 76.3199 19.9933 -15.5597 31.3978 28.5362 -11.2188 -127.529 63.6386 13.3964 16.2598 22.7128 1.25912 4.41833 34.1863 1.08746 3.52464 
-57.2056 18.1841 39.8512 -3.30578 -8.18501 -5.4041 -168.186 6.94176 86.7587 -23.8562 13.7146 -5.4966 61.0225 3.7243 6.54241 60.4723 38.0447 31.8712 176.827 11.5955 84.4995 -38.439 -16.9797 -9.50184 77.3879 -7.66304 -3.44488 62.8841 1.84324 0.485902 0.216271 7.50038 -91.5953 11.8576 -0.320545 -3.14702 0.182948 -0.458671 -3.1299 -22.3224 0.63961 -3.09801 -2.30972 0.639611 -3.09802 93.6997 -52.1257 -94.79 1.99844 -8.96729 21.241 -59.4053 18.7195 -103.799 -68.091 -9.45223 13.8762 -89.959 -38.7824 76.08 22.5364 -19.3282 36.2512 29.6224 -12.8381 -131.12 64.0323 13.2165 15.8395 23.8969 1.53884 3.28271 33.3216 1.73225 3.7763 
-57.3371 17.0169 40.282 -3.68923 -7.14382 -5.46631 -168.606 6.34122 86.5423 -22.5098 12.7092 -5.1113 61.3726 4.11527 6.57177 60.9523 37.3357 29.4629 176.779 11.237 84.61 -37.1391 -16.724 -9.57378 77.2763 -7.58857 -3.41756 62.5679 1.93677 0.963791 0.207789 7.40425 -91.5886 12.0502 -0.336913 -3.1325 0.375567 -0.474386 -3.11468 -22.13 0.619636 -3.08908 -2.11736 0.619643 -3.08908 93.6433 -51.798 -94.9281 3.21131 -9.52641 23.0835 -58.278 18.9464 -104.251 -70.3223 -8.67972 12.1756 -90.594 -41.2546 75.69 26.9057 -23.5925 41.1584 27.4872 -11.7413 -134.672 58.3373 10.9116 14.3651 24.6163 1.88701 4.55023 33.018 1.30497 2.88039 
-57.4285 15.9479 40.6113 -4.40102 -6.69202 -5.37316 -168.974 5.50243 86.7122 -21.5706 13.3226 -4.74538 61.1183 3.98879 7.27016 62.3828 37.1743 25.9667 176.532 10.5173 84.686 -35.9118 -16.962 -9.40468 77.0298 -7.52878 -3.40843 63.7227 2.08375 1.26695 0.237204 7.36846 -91.5293 12.1237 -0.251435 -3.02389 0.44927 -0.384213 -3.00992 -22.0585 0.668582 -2.95982 -2.04587 0.668579 -2.95981 94.1147 -52.6986 -94.0792 3.69107 -10.2517 24.1655 -58.4596 19.2828 -104.344 -68.8493 -8.83687 12.6968 -90.3066 -41.7683 76.297 29.0086 -27.3995 45.0386 24.4443 -8.75756 -137.214 61.4697 10.1526 11.9952 24.2697 1.98836 2.74755 33.8888 2.30396 3.68936 
-57.3417 14.9251 40.88 -4.45341 -5.97591 -5.52998 -169.402 4.86003 86.6338 -20.3491 14.4492 -4.50045 60.875 3.73673 7.0448 63.4111 37.2748 23.9373 176.243 10.1203 84.5411 -34.9839 -16.6834 -9.38022 76.7052 -7.33074 -3.339 64.276 1.98797 0.749501 0.251735 7.29895 -91.5569 12.2625 -0.237558 -3.08113 0.587936 -0.372862 -3.06771 -21.9189 0.698999 -3.01025 -1.90622 0.698995 -3.01024 94.2991 -51.3834 -93.9966 5.4218 -9.66936 25.7475 -58.803 18.9931 -104.317 -71.1228 -9.10526 12.6605 -90.6645 -43.2193 76.092 30.4459 -29.5596 47.4328 23.3838 -7.5185 -138.558 61.1912 9.66436 11.3187 24.834 2.58471 3.51038 33.579 2.69954 3.99411 
-57.4124 14.1011 41.0662 -4.86819 -5.6766 -5.56233 -169.658 4.10968 86.9255 -19.5672 15.6663 -4.3155 61.1112 3.63051 5.72496 63.3755 37.0853 23.6464 176.12 9.29363 84.6517 -33.7004 -15.7505 -9.27877 76.9808 -7.4051 -3.36013 64.2204 2.3646 2.25824 0.357641 7.22462 -91.6126 12.4127 -0.0556922 -3.214 0.737846 -0.197012 -3.20846 -21.7672 0.912352 -3.0824 -1.7546 0.912351 -3.08243 94.4357 -51.0509 -93.8379 5.55684 -8.86498 27.7857 -58.5612 18.9268 -104.948 -72.3852 -9.18422 12.5181 -93.678 -45.5511 71.9837 37.8495 -32.1975 53.7983 23.0181 -6.10398 -140.375 60.5932 9.75752 11.644 21.5885 2.03707 5.41502 36.9227 1.22656 2.46772 
